<svg width="2058" height="2058" viewBox="0 0 2058 2058" fill="none" xmlns="http://www.w3.org/2000/svg">
<rect width="2058" height="2058" fill="black"/>
<path d="M1029.5 1257C987.627 1257 949.38 1246.78 914.761 1226.34C880.471 1205.89 853.105 1178.53 832.663 1144.24C812.221 1109.62 802 1071.37 802 1029.5C802 987.627 812.221 949.545 832.663 915.255C853.105 880.636 880.471 853.105 914.761 832.663C949.38 812.221 987.627 802 1029.5 802C1071.37 802 1109.45 812.221 1143.74 832.663C1178.36 853.105 1205.89 880.636 1226.34 915.255C1246.78 949.545 1257 987.627 1257 1029.5C1257 1071.37 1246.78 1109.62 1226.34 1144.24C1205.89 1178.53 1178.36 1205.89 1143.74 1226.34C1109.45 1246.78 1071.37 1257 1029.5 1257ZM1029.5 1158.09C1053.24 1158.09 1074.84 1152.32 1094.29 1140.78C1113.74 1129.24 1129.24 1113.74 1140.78 1094.29C1152.32 1074.84 1158.09 1053.24 1158.09 1029.5C1158.09 1005.76 1152.32 984.165 1140.78 964.712C1129.24 945.259 1113.74 929.763 1094.29 918.223C1074.84 906.683 1053.24 900.913 1029.5 900.913C1005.76 900.913 984.165 906.683 964.712 918.223C945.259 929.763 929.763 945.259 918.223 964.712C906.683 984.165 900.913 1005.76 900.913 1029.5C900.913 1053.24 906.683 1074.84 918.223 1094.29C929.763 1113.74 945.259 1129.24 964.712 1140.78C984.165 1152.32 1005.76 1158.09 1029.5 1158.09Z" fill="white"/>
</svg>
