<svg width="430" height="430" viewBox="0 0 430 430" fill="none" xmlns="http://www.w3.org/2000/svg">
<rect width="430" height="430" fill="black"/>
<path d="M183.25 252.5H172.5V241.75H161.75V231H151V220.25V209.5V198.75V188H161.75H172.5V198.75V209.5V220.25V231H183.25H194V220.25V209.5V198.75V188H204.75H215.5V198.75V209.5V220.25V231H204.75V241.75H194V252.5H183.25ZM258.5 220.25H247.75H237V209.5H226.25V198.75V188H237V177.25H247.75H258.5H269.25V188H280V198.75V209.5H269.25V220.25H258.5ZM258.5 209.5V198.75V188H247.75V198.75V209.5H258.5Z" fill="white"/>
</svg>
